<svg xmlns="http://www.w3.org/2000/svg" viewBox="0 0 25 25" id="nike-logo"><path fill="#583689" d="m6.668 12.225-1.393-.557 2.279-5.696A.75.75 0 0 1 9 6.25v1.105l.832-2.081 1.393.557-2.279 5.696a.748.748 0 0 1-.838.458.748.748 0 0 1-.608-.735v-1.105l-.832 2.08zM10.161 11.668l2.557-6.393 1.393.557-2.557 6.393zM13.025 11.668l2.557-6.393 1.393.557-2.557 6.393z"></path><path fill="#583689" d="m15.722 12.17-.902-3.334a.75.75 0 0 1 .201-.733l2.994-2.913 1.046 1.075-2.678 2.605.787 2.908-1.448.392zM21.5 12h-2.75a.751.751 0 0 1-.696-1.029l2-5a.749.749 0 0 1 .696-.471h2.75V7h-2.242l-1.4 3.5H21.5V12z"></path><path fill="#583689" d="M19.328 8H22.5v1.5h-3.172z"></path><path fill="#DE002A" d="M3.804 20.002c-.94 0-1.912-.271-2.808-1.066-1.87-1.658-1.096-4.747 2.181-8.697a1 1 0 0 1 1.669 1.076c-.576 1.183-.667 2.146-.25 2.642.36.429 1.128.565 1.909.34 5.117-1.424 17.006-4.732 17.084-4.752.694-.179 1.181.202 1.344.63.167.441.024 1.048-.573 1.354-.689.309-15.746 7.023-17.161 7.604-.895.367-2.116.869-3.395.869zm-1.167-5.438c-.697 1.365-.837 2.412-.314 2.876 1.093.969 2.493.509 4.077-.142.509-.209 2.812-1.224 5.569-2.446L7.05 16.221c-1.542.444-3.111.062-3.985-.977a2.937 2.937 0 0 1-.428-.68z"></path></svg>